<svg width="666" height="666" viewBox="0 0 666 666" fill="none" xmlns="http://www.w3.org/2000/svg">
<path d="M408.603 307.828H196.384V323.128H408.603V307.828Z" fill="#182651"/>
<path d="M397.861 176.978H209.075V307.828H397.861V176.978Z" fill="#B0E3FF"/>
<path d="M425.58 175.516L391.682 131.412H365.961L389.844 175.516C389.844 175.516 389.764 180.197 389.764 182.787C389.764 192.826 397.898 200.96 407.937 200.96C417.977 200.96 426.111 192.826 426.111 182.787C426.111 180.203 425.58 175.516 425.58 175.516Z" fill="#182A53"/>
<path d="M319.341 175.566L319.594 131.351H285.986V175.566C285.986 175.566 284.703 180.246 284.703 182.836C284.703 192.814 292.8 200.911 302.79 200.911C312.78 200.911 320.877 192.82 320.877 182.836C320.877 180.246 320.322 177.792 319.341 175.566Z" fill="#428CC9"/>
<path d="M179.53 175.516L213.428 131.412H239.15L215.266 175.516C215.266 175.516 215.346 180.197 215.346 182.787C215.346 192.826 207.212 200.96 197.173 200.96C187.134 200.96 179 192.826 179 182.787C179 180.203 179.53 175.516 179.53 175.516Z" fill="#182651"/>
<path d="M391.676 116.439H213.385V131.412H391.676V116.439Z" fill="#182651"/>
<path d="M302.167 215.581C290.611 215.581 280.664 223.838 276.156 235.721C274.516 240.038 273.591 244.823 273.572 249.874V250.04V307.828H330.774V250.04V249.874C330.756 244.823 329.831 240.038 328.19 235.721C323.676 223.838 313.729 215.581 302.179 215.581H302.167Z" fill="white"/>
<path d="M215.254 175.46L215.451 175.053C215.729 174.455 216.043 173.876 216.382 173.314L238.81 131.356H265.019L250.515 175.46C250.515 175.46 251.051 180.147 251.051 182.731C251.051 192.9 242.702 201.145 232.397 201.145C222.093 201.145 213.743 192.9 213.743 182.731C213.743 180.147 214.286 177.693 215.26 175.46H215.254Z" fill="#428CC9"/>
<path d="M250.607 175.109L264.982 131.412L285.979 131.356V182.54C285.979 192.739 277.71 201.009 267.51 201.009C257.311 201.009 249.041 192.739 249.041 182.54C249.041 179.894 249.608 177.384 250.607 175.109Z" fill="#182651"/>
<path d="M389.746 175.596L389.548 175.189C389.271 174.591 388.969 174.011 388.63 173.45L366.491 131.492H340.616L354.935 175.596C354.935 175.596 354.405 180.283 354.405 182.867C354.405 193.036 362.649 201.28 372.818 201.28C382.987 201.28 391.232 193.036 391.232 182.867C391.232 180.283 390.695 177.829 389.733 175.596H389.746Z" fill="#428CC9"/>
<path d="M354.898 175.059L340.616 131.412L319.52 131.301V182.484C319.52 192.684 327.789 200.953 337.989 200.953C348.189 200.953 356.458 192.684 356.458 182.484C356.458 179.839 355.891 177.329 354.892 175.053L354.898 175.059Z" fill="#182651"/>
<path d="M410.003 236.628H387.267L371.135 212.128V209.809C371.135 208.342 369.945 207.151 368.477 207.151H366.491C365.024 207.151 363.833 208.342 363.833 209.809V212.029L347.282 236.628H321.857C318.317 236.628 315.444 239.502 315.444 243.041V244.287C315.444 247.827 318.317 250.7 321.857 250.7H323.621L331.434 286.88C331.434 286.88 332.488 293.775 340.431 294.058C348.374 294.348 395.851 294.058 395.851 294.058C395.851 294.058 402.838 294.348 404.367 283.914C405.613 275.435 409.004 257.212 410.231 250.688C413.672 250.571 416.423 247.753 416.423 244.287V243.041C416.423 239.502 413.549 236.628 410.009 236.628H410.003ZM344.168 283.877C342.336 283.994 340.752 282.607 340.634 280.775L339.019 256.065C338.902 254.234 340.301 252.742 342.133 252.742C343.964 252.742 345.562 254.24 345.685 256.065L347.276 280.337C347.393 282.169 346.006 283.754 344.174 283.871L344.168 283.877ZM366.158 215.489L369.124 215.476L381.119 236.628H353.11L366.152 215.489H366.158ZM362.051 280.584C362.051 282.644 360.177 284.272 358.037 283.84C356.47 283.526 355.397 282.058 355.397 280.461V256.158C355.397 254.561 356.47 253.087 358.037 252.779C360.177 252.353 362.051 253.975 362.051 256.035V280.584ZM376.999 280.584C376.999 282.422 375.513 283.908 373.675 283.908C371.838 283.908 370.352 282.422 370.352 280.584V256.035C370.352 254.197 371.838 252.711 373.675 252.711C375.513 252.711 376.999 254.197 376.999 256.035V280.584ZM392.675 280.553C392.558 282.385 390.954 283.877 389.123 283.877C387.291 283.877 385.885 282.379 386.009 280.553L387.618 255.973C387.723 254.376 388.889 252.982 390.473 252.772C392.632 252.483 394.402 254.228 394.266 256.287L392.675 280.559V280.553Z" fill="#428CC9"/>
<path d="M133.808 390.794V407.715H127V366.929H141.035C145.574 366.929 149.083 367.959 151.568 370.013C154.053 372.066 155.293 375.001 155.293 378.806C155.293 380.915 154.744 382.734 153.652 384.251C152.561 385.775 150.97 386.996 148.879 387.908C151.173 388.636 152.832 389.82 153.85 391.466C154.867 393.113 155.379 395.148 155.379 397.571V400.963C155.379 402.159 155.527 403.325 155.829 404.466C156.125 405.607 156.625 406.47 157.315 407.068V407.709H150.31C149.564 407.093 149.089 406.131 148.879 404.823C148.676 403.516 148.571 402.209 148.571 400.901V397.627C148.571 395.536 147.967 393.871 146.764 392.638C145.562 391.405 143.921 390.788 141.849 390.788H133.808V390.794ZM133.808 385.337H140.671C143.397 385.337 145.389 384.813 146.641 383.77C147.893 382.722 148.515 381.131 148.515 378.979C148.515 376.827 147.899 375.316 146.666 374.15C145.432 372.985 143.557 372.399 141.035 372.399H133.808V385.343V385.337Z" fill="#4897CD"/>
<path d="M186.274 389.37H170.308V402.283H189.135V407.715H163.507V366.929H188.944V372.393H170.315V383.906H186.28V389.37H186.274Z" fill="#4897CD"/>
<path d="M216.75 397.238C216.75 395.536 216.145 394.149 214.943 393.063C213.74 391.978 211.607 391.01 208.542 390.153C204.151 388.938 200.772 387.347 198.385 385.374C196.005 383.406 194.815 380.829 194.815 377.659C194.815 374.489 196.122 371.665 198.737 369.538C201.352 367.41 204.712 366.343 208.819 366.343C213.229 366.343 216.75 367.527 219.395 369.889C222.035 372.251 223.311 375.168 223.219 378.646L223.163 378.812H216.608C216.608 376.666 215.893 374.958 214.468 373.688C213.037 372.417 211.138 371.782 208.77 371.782C206.402 371.782 204.706 372.325 203.461 373.404C202.221 374.489 201.598 375.889 201.598 377.604C201.598 379.17 202.277 380.465 203.646 381.482C205.008 382.5 207.265 383.468 210.423 384.381C214.696 385.577 217.958 387.205 220.197 389.271C222.435 391.337 223.558 393.97 223.558 397.183C223.558 400.562 222.232 403.263 219.58 405.28C216.929 407.296 213.444 408.307 209.134 408.307C204.823 408.307 201.376 407.204 198.293 405.002C195.21 402.801 193.717 399.693 193.81 395.678L193.865 395.512H200.42C200.42 397.96 201.265 399.804 202.955 401.043C204.645 402.283 206.704 402.905 209.134 402.905C211.564 402.905 213.414 402.4 214.752 401.376C216.084 400.359 216.756 398.983 216.756 397.244L216.75 397.238Z" fill="#4897CD"/>
<path d="M259.022 372.393H246.417V407.715H239.609V372.393H227.202V366.929H259.022V372.393Z" fill="#4897CD"/>
<path d="M282.382 398.188H267.927L264.788 407.709H257.758L271.991 366.923H278.46L292.52 407.709H285.49L282.382 398.188ZM269.802 392.502H280.532L275.296 376.426H275.13L269.808 392.502H269.802Z" fill="#4897CD"/>
<path d="M328.237 366.929V393.791C328.237 398.33 326.744 401.882 323.766 404.447C320.787 407.013 316.946 408.301 312.24 408.301C307.535 408.301 303.835 407.019 300.925 404.447C298.014 401.876 296.552 398.324 296.552 393.791V366.929H303.36V393.791C303.36 396.683 304.175 398.922 305.796 400.501C307.418 402.079 309.57 402.869 312.24 402.869C314.911 402.869 317.229 402.079 318.907 400.501C320.59 398.922 321.429 396.69 321.429 393.791V366.929H328.237Z" fill="#4897CD"/>
<path d="M343 390.794V407.715H336.192V366.929H350.227C354.766 366.929 358.275 367.959 360.76 370.013C363.245 372.066 364.485 375.001 364.485 378.806C364.485 380.915 363.936 382.734 362.844 384.251C361.753 385.775 360.162 386.996 358.071 387.908C360.365 388.636 362.024 389.82 363.042 391.466C364.059 393.113 364.571 395.148 364.571 397.571V400.963C364.571 402.159 364.719 403.325 365.021 404.466C365.317 405.607 365.817 406.47 366.507 407.068V407.709H359.502C358.756 407.093 358.281 406.131 358.071 404.823C357.868 403.516 357.763 402.209 357.763 400.901V397.627C357.763 395.536 357.159 393.871 355.956 392.638C354.754 391.405 353.113 390.788 351.041 390.788H343V390.794ZM343 385.337H349.863C352.589 385.337 354.581 384.813 355.833 383.77C357.085 382.722 357.707 381.131 357.707 378.979C357.707 376.827 357.091 375.316 355.857 374.15C354.624 372.985 352.749 372.399 350.227 372.399H343V385.343V385.337Z" fill="#4897CD"/>
<path d="M393.924 398.188H379.47L376.331 407.709H369.301L383.533 366.923H390.002L404.062 407.709H397.032L393.924 398.188ZM381.344 392.502H392.074L386.839 376.426H386.672L381.35 392.502H381.344Z" fill="#4897CD"/>
<path d="M440.957 407.715H434.149L416.081 378.331L415.914 378.387V407.715H409.106V366.929H415.914L433.983 396.313L434.149 396.258V366.929H440.957V407.715Z" fill="#4897CD"/>
<path d="M477.205 372.393H464.6V407.715H457.792V372.393H445.385V366.929H477.205V372.393Z" fill="#4897CD"/>
<path d="M204.399 438.142L203.986 438.069L203.671 438.013L203.258 437.94L203.114 438.335L184.406 490.034H174.755L156.054 438.231L155.913 437.843L155.506 437.907L155.191 437.957L154.769 438.023V490.028H140.5V414.894H159.673L178.874 470.582V471.004H180.044L180.161 470.669L199.598 414.9H218.668V490.034H204.399V438.142Z" fill="#1A2952" stroke="white"/>
<path d="M268.998 414.894L294.229 490.028H279.345L274.281 473.961L274.171 473.612H248.758L248.647 473.963L243.633 490.028H228.75L254.085 414.894H268.998ZM260.89 435.161L252.416 461.986L252.211 462.636H270.779L270.575 461.987L262.157 435.162L262.048 434.811H261L260.89 435.161Z" fill="#1A2952" stroke="white"/>
<path d="M317.237 414.894L347.782 465.945L347.955 466.235L348.289 466.182L348.604 466.133L349.026 466.067V414.894H363.294V490.034H348.81L318.264 438.927L318.09 438.638L317.757 438.69L317.443 438.74L317.02 438.806V490.028H302.751V414.894H317.237Z" fill="#1A2952" stroke="white"/>
<path d="M404.365 414.9C413.553 414.9 421.094 417.831 427.022 423.674C432.947 429.515 435.919 437.003 435.919 446.195V458.801C435.919 467.736 433.13 475.043 427.57 480.772L427.023 481.321C421.095 487.128 413.554 490.04 404.365 490.04H378.305V414.9H404.365ZM392.574 479.317H404.365C409.528 479.317 413.719 477.38 416.882 473.51C420.034 469.654 421.595 464.737 421.595 458.788V446.078C421.595 440.35 420.13 435.58 417.172 431.799L416.881 431.436L416.581 431.08C413.448 427.466 409.366 425.66 404.365 425.66H392.574V479.317Z" fill="#1A2952" stroke="white"/>
<path d="M464.471 414.9V490.034H450.202V414.9H464.471Z" fill="#1A2952" stroke="white"/>
<path d="M119 490.534C160.169 526.3 226.978 549.561 302.409 549.561C377.84 549.561 444.649 526.3 485.818 490.534C441.776 521.534 375.959 541.218 302.409 541.218C228.859 541.218 163.042 521.527 119 490.534Z" fill="#428CC9"/>
<path d="M288.397 583.746H288.406H294.148L286.583 583.092C286.318 583.051 286.048 583.021 285.771 583.021C282.915 583.021 280.6 585.348 280.6 588.218C280.6 591.089 282.915 593.415 285.771 593.415C288.628 593.415 290.942 591.089 290.942 588.218C290.942 586.313 289.919 584.65 288.397 583.746Z" fill="white"/>
<path d="M272.389 598.104L280.967 596.714L280.782 596.228L286.524 595.857L280.599 595.44C278.11 588.463 271.789 589.808 271.789 589.808L271.949 589.646L276.861 588.812L271.37 589.11C271.269 589.042 271.146 589.002 271.016 589.002C270.662 589.002 270.377 589.291 270.377 589.645C270.377 589.732 270.394 589.817 270.426 589.892C263.276 591.693 263.279 598.216 263.279 598.216H262.539V599.181H281.591V598.216H273.589L272.39 598.102L272.389 598.104Z" fill="white"/>
<path d="M275.173 600.393C275.173 600.393 278.77 608.03 282.713 604.327L284.84 601.883L289.821 596.61L292.796 593.863L294.664 592.525C294.664 592.525 296.168 591.238 298.763 591.726L313.119 592.803L301.228 592.854C301.228 592.854 303.589 594.749 304.817 598.938L317.355 599.859L305.076 599.876C305.076 599.876 306.512 603.786 305.664 607.664C305.664 607.664 304.211 598.52 296.809 599.007C296.809 599.007 294.873 599.285 291.656 604.082L299.82 604.707L291.206 604.741C291.206 604.741 289.126 609.557 286.525 610.651L293.801 611.259H285.308C285.308 611.259 281.313 612.771 278.303 609.33C275.294 605.889 275.173 600.39 275.173 600.39V600.393Z" fill="white"/>
<path d="M280.482 619.727C280.482 619.727 279.79 614.884 284.888 613.585C289.983 612.288 295.679 616.181 295.679 616.181L310.784 617.224L297.478 617.384L301.56 621.048L310.922 621.744H302.643C302.643 621.744 304.558 623.725 309.037 625.117C309.037 625.117 315.073 627.864 319.293 617.92C319.293 617.92 318.273 622.526 315.991 626.316C315.991 626.316 312.946 629.879 312.375 630.14C311.804 630.401 323.687 630.992 323.687 630.992L311.77 631.131C311.77 631.131 311.355 630.697 310.232 631.496C309.107 632.294 307.223 632.59 301.637 628.888C296.05 625.185 291.645 619.009 288.141 621.327C288.141 621.327 284.687 624.508 291.207 629.393C291.207 629.393 294.269 630.609 299.214 630.783C299.214 630.783 291.276 631.513 288.163 629.218C288.163 629.218 281.279 625.603 280.484 619.727H280.482Z" fill="white"/>
<path d="M417.325 582H314.789V583.79H417.325V582Z" fill="white"/>
<path d="M417.325 615.594H314.789V617.384H417.325V615.594Z" fill="white"/>
<path d="M325.996 601.235C326.094 600.997 326.205 600.761 326.287 600.517C327.271 597.592 328.254 594.666 329.235 591.74C329.292 591.572 329.338 591.398 329.406 591.235C329.803 590.306 330.482 589.814 331.514 589.802C332.543 589.79 333.27 590.235 333.642 591.185C334.169 592.529 334.653 593.889 335.154 595.243C335.793 596.971 336.43 598.701 337.073 600.43C337.155 600.648 337.254 600.861 337.364 601.115C337.701 600.909 337.687 600.619 337.752 600.38C338.55 597.375 339.34 594.369 340.138 591.366C340.48 590.082 341.595 589.381 342.796 589.672C344.09 589.984 344.838 591.233 344.47 592.541C343.988 594.25 343.473 595.951 342.967 597.653C341.955 601.058 340.942 604.464 339.928 607.869C339.877 608.039 339.832 608.212 339.769 608.377C339.436 609.262 338.759 609.75 337.868 609.786C336.868 609.827 336.143 609.393 335.76 608.48C335.357 607.518 335.022 606.529 334.66 605.549C333.772 603.154 332.887 600.76 331.998 598.365C331.916 598.143 331.803 597.933 331.704 597.717C331.654 597.714 331.606 597.708 331.557 597.705C331.459 597.935 331.347 598.16 331.266 598.397C330.382 601.005 329.506 603.615 328.625 606.225C328.37 606.982 328.129 607.745 327.851 608.494C327.475 609.506 326.767 609.963 325.716 609.953C324.815 609.944 324.21 609.497 323.839 608.709C323.67 608.348 323.557 607.961 323.43 607.582C321.88 602.878 320.331 598.172 318.784 593.468C318.582 592.855 318.389 592.254 318.611 591.585C318.938 590.601 319.666 589.989 320.642 589.967C321.76 589.941 322.548 590.445 322.878 591.481C323.316 592.855 323.702 594.247 324.112 595.63C324.61 597.312 325.109 598.993 325.611 600.674C325.666 600.857 325.748 601.033 325.818 601.213C325.876 601.22 325.935 601.229 325.994 601.235H325.996Z" fill="white"/>
<path d="M413.942 596.861C413.942 598.373 413.91 599.886 413.949 601.396C414.045 605.107 411.434 608.557 407.807 609.428C403.113 610.553 398.81 607.652 397.831 603.089C397.711 602.528 397.682 601.943 397.67 601.369C397.636 599.591 397.638 597.811 397.612 596.033C397.591 594.543 397.544 593.055 397.53 591.568C397.521 590.592 398.092 589.777 398.959 589.446C399.863 589.101 400.877 589.334 401.484 590.095C401.709 590.377 401.868 590.746 401.95 591.1C402.05 591.528 402.058 591.982 402.063 592.425C402.089 594.67 402.096 596.916 402.121 599.161C402.132 600.027 402.166 600.895 402.207 601.761C402.284 603.465 403.839 604.965 405.533 605.088C407.771 605.25 409.501 603.401 409.463 601.262C409.407 598.017 409.375 594.772 409.318 591.526C409.305 590.791 409.51 590.173 410.072 589.686C410.783 589.07 411.609 588.985 412.434 589.307C413.284 589.637 413.764 590.315 413.787 591.262C413.833 593.128 413.874 594.995 413.917 596.862C413.923 596.862 413.932 596.862 413.939 596.862L413.942 596.861Z" fill="white"/>
<path d="M372.332 589.156C373.375 589.103 374.031 589.628 374.452 590.548C375.719 593.312 376.999 596.071 378.273 598.834C379.332 601.132 380.402 603.424 381.44 605.733C381.654 606.209 381.837 606.738 381.866 607.252C381.926 608.324 381.223 609.154 380.17 609.411C379.199 609.648 378.163 609.202 377.71 608.295C377.392 607.661 377.143 606.992 376.855 606.343C376.638 605.853 376.563 605.821 376.054 605.829C373.908 605.865 371.765 605.889 369.619 605.927C367.994 605.956 368.342 605.791 367.759 607.162C367.604 607.53 367.46 607.903 367.303 608.271C366.8 609.456 365.573 609.987 364.406 609.528C363.255 609.076 362.711 607.893 363.164 606.687C363.532 605.711 363.975 604.764 364.39 603.807C366.269 599.467 368.149 595.13 370.024 590.79C370.24 590.292 370.501 589.836 370.946 589.512C371.36 589.209 371.835 589.132 372.332 589.158V589.156ZM372.443 595.982C371.951 596.604 370.03 601.438 370.016 601.96C370.452 602.108 374.327 602.044 374.931 601.85C374.151 599.906 373.312 597.997 372.443 595.982Z" fill="white"/>
<path d="M352.528 589.229C353.575 589.26 354.274 589.733 354.699 590.66C355.894 593.263 357.098 595.862 358.294 598.464C359.482 601.046 360.664 603.63 361.86 606.207C362.053 606.622 362.139 607.043 362.125 607.495C362.095 608.552 361.45 609.347 360.419 609.591C359.493 609.811 358.438 609.354 357.997 608.488C357.696 607.895 357.436 607.279 357.202 606.657C357.031 606.203 356.79 606.006 356.276 606.016C353.997 606.062 351.718 606.064 349.44 606.083C349.351 606.083 349.262 606.093 349.175 606.091C348.701 606.081 348.4 606.27 348.243 606.755C348.051 607.344 347.792 607.913 347.556 608.488C347.084 609.644 345.877 610.094 344.677 609.68C343.496 609.273 342.966 607.94 343.482 606.706C344.168 605.068 344.884 603.442 345.59 601.812C347.169 598.165 348.754 594.521 350.33 590.872C350.566 590.327 350.86 589.827 351.407 589.569C351.758 589.404 352.156 589.337 352.532 589.228L352.528 589.229ZM350.286 602.205C351.901 602.279 353.513 602.233 355.245 602.083C354.934 601.345 354.662 600.697 354.388 600.049C354.111 599.396 353.841 598.74 353.552 598.092C353.272 597.464 353.077 596.788 352.662 596.184C352.204 596.783 350.296 601.621 350.284 602.207L350.286 602.205Z" fill="white"/>
<path d="M387.517 596.348C387.744 596.035 387.893 595.846 388.026 595.645C389.202 593.894 390.38 592.145 391.55 590.39C392.013 589.694 392.625 589.319 393.478 589.287C395.112 589.227 396.257 590.917 395.505 592.584C395.406 592.803 395.254 593.001 395.119 593.205C393.51 595.628 391.905 598.054 390.283 600.467C389.985 600.911 389.833 601.351 389.852 601.893C389.91 603.605 389.929 605.316 389.965 607.029C389.992 608.329 389.177 609.289 387.895 609.461C386.835 609.604 385.799 608.877 385.514 607.767C385.454 607.535 385.447 607.285 385.443 607.042C385.416 605.352 385.387 603.663 385.375 601.972C385.372 601.392 385.172 600.916 384.831 600.445C383.115 598.071 381.428 595.674 379.722 593.291C379.361 592.788 379.136 592.262 379.166 591.625C379.211 590.704 379.72 589.931 380.548 589.608C381.414 589.271 382.366 589.467 382.992 590.132C383.173 590.324 383.327 590.546 383.483 590.762C384.645 592.388 385.804 594.015 386.968 595.638C387.119 595.848 387.285 596.045 387.52 596.346L387.517 596.348Z" fill="white"/>
<path d="M396.051 627.07C395.875 627.061 395.722 627.046 395.57 627.046C394.777 627.044 393.982 627.046 393.133 627.046C392.926 627.69 392.722 628.315 392.521 628.942C392.425 629.238 392.271 629.454 391.922 629.468C391.451 629.489 391.155 629.197 391.215 628.731C391.237 628.557 391.305 628.389 391.365 628.222C392.097 626.2 392.832 624.18 393.56 622.158C393.731 621.682 393.921 621.222 394.519 621.201C395.153 621.179 395.369 621.648 395.558 622.146C396.338 624.173 397.126 626.197 397.909 628.222C397.957 628.346 398.01 628.47 398.04 628.599C398.129 628.98 397.981 629.319 397.685 629.432C397.345 629.562 396.974 629.425 396.794 629.061C396.668 628.805 396.591 628.523 396.495 628.252C396.375 627.918 396.261 627.582 396.141 627.248C396.126 627.207 396.102 627.169 396.051 627.07ZM394.591 622.783C394.545 622.78 394.499 622.776 394.452 622.771C394.136 623.797 393.82 624.823 393.49 625.889H395.675C395.297 624.807 394.945 623.793 394.591 622.782V622.783Z" fill="white"/>
<path d="M399.803 628.825C399.803 629.508 399.803 630.062 399.803 630.613C399.803 630.702 399.805 630.792 399.803 630.879C399.788 631.434 399.596 631.704 399.234 631.687C398.887 631.67 398.7 631.417 398.699 630.907C398.694 628.682 398.699 626.457 398.695 624.232C398.695 623.894 398.764 623.598 399.124 623.495C399.466 623.397 399.659 623.609 399.806 623.884C399.824 623.916 399.877 623.928 399.863 623.92C400.289 623.765 400.666 623.561 401.068 623.494C402.301 623.289 403.35 623.964 403.791 625.222C404.104 626.112 404.09 627.016 403.752 627.9C403.16 629.443 401.545 629.957 400.16 629.051C400.09 629.005 400.018 628.962 399.803 628.826V628.825ZM402.96 626.56C402.979 625.937 402.854 625.361 402.446 624.882C401.818 624.146 400.806 624.179 400.215 624.942C399.601 625.732 399.577 627.131 400.162 627.947C400.777 628.806 401.878 628.826 402.519 627.988C402.841 627.567 402.96 627.077 402.96 626.56Z" fill="white"/>
<path d="M405.747 628.823C405.733 629.119 405.716 629.332 405.714 629.543C405.709 630.055 405.725 630.567 405.706 631.077C405.69 631.476 405.467 631.697 405.15 631.684C404.858 631.672 404.668 631.462 404.634 631.103C404.624 630.993 404.629 630.881 404.629 630.77C404.629 628.634 404.629 626.499 404.629 624.363C404.629 624.296 404.632 624.229 404.629 624.162C404.612 623.843 404.704 623.58 405.037 623.489C405.342 623.405 405.542 623.568 405.687 623.824C405.716 623.875 405.766 623.915 405.822 623.98C406.267 623.645 406.75 623.461 407.304 623.456C408.198 623.448 408.909 623.803 409.371 624.563C410.113 625.782 410.121 627.064 409.456 628.306C408.802 629.529 407.29 629.854 406.126 629.086C406.02 629.017 405.92 628.942 405.745 628.82L405.747 628.823ZM405.649 626.741C405.72 626.963 405.795 627.437 406.014 627.829C406.573 628.832 407.805 628.864 408.472 627.932C409.041 627.136 409.027 625.774 408.443 624.984C407.814 624.133 406.709 624.137 406.089 624.992C405.762 625.442 405.668 625.959 405.651 626.741H405.649Z" fill="white"/>
<path d="M346.582 624.091C346.582 623.342 346.582 622.736 346.582 622.131C346.582 621.974 346.575 621.813 346.602 621.66C346.647 621.408 346.829 621.272 347.069 621.248C347.341 621.22 347.554 621.349 347.638 621.615C347.684 621.761 347.676 621.926 347.676 622.083C347.677 624.261 347.676 626.44 347.676 628.618C347.676 628.707 347.676 628.798 347.672 628.888C347.664 629.161 347.556 629.376 347.281 629.446C347.021 629.513 346.792 629.45 346.647 629.199C346.604 629.125 346.561 629.051 346.506 628.953C346.011 629.317 345.481 629.486 344.87 629.482C344.009 629.475 343.342 629.125 342.896 628.417C342.098 627.146 342.101 625.811 342.828 624.522C343.484 623.357 344.966 623.052 346.1 623.765C346.226 623.844 346.346 623.933 346.578 624.093L346.582 624.091ZM346.612 626.484C346.643 625.924 346.517 625.385 346.171 624.916C345.575 624.103 344.515 624.079 343.874 624.854C343.204 625.663 343.188 627.168 343.841 627.996C344.482 628.809 345.575 628.793 346.182 627.957C346.494 627.525 346.626 627.034 346.609 626.484H346.612Z" fill="white"/>
<path d="M325.767 625.689C325.767 626.671 325.767 627.546 325.767 628.42C325.767 628.599 325.779 628.783 325.75 628.958C325.695 629.291 325.47 629.468 325.145 629.465C324.82 629.461 324.605 629.281 324.552 628.944C324.528 628.79 324.538 628.63 324.538 628.473C324.538 626.451 324.536 624.429 324.538 622.409C324.538 621.45 324.759 621.236 325.731 621.234C326.805 621.232 327.877 621.234 328.95 621.234C329.039 621.234 329.13 621.244 329.219 621.234C329.63 621.177 329.923 621.517 329.913 621.796C329.901 622.122 329.663 622.308 329.191 622.311C328.297 622.32 327.403 622.311 326.509 622.314C326.29 622.314 326.071 622.333 325.812 622.345V624.553C325.979 624.572 326.148 624.606 326.319 624.608C327.102 624.613 327.883 624.61 328.666 624.611C328.8 624.611 328.936 624.603 329.068 624.623C329.372 624.668 329.552 624.843 329.559 625.163C329.566 625.482 329.381 625.677 328.998 625.685C328.195 625.702 327.389 625.692 326.584 625.692C326.343 625.692 326.102 625.692 325.769 625.692L325.767 625.689Z" fill="white"/>
<path d="M339.031 629.469C337.479 629.471 336.465 628.61 336.19 627.069C336.084 626.48 336.13 625.901 336.299 625.336C336.684 624.058 337.853 623.298 339.253 623.396C340.655 623.494 341.688 624.448 341.864 625.849C341.913 626.246 341.913 626.662 341.86 627.059C341.664 628.548 340.568 629.466 339.029 629.469H339.031ZM340.841 626.375C340.773 626.066 340.73 625.707 340.614 625.374C340.37 624.673 339.831 624.319 339.077 624.305C338.272 624.291 337.73 624.633 337.45 625.343C337.219 625.923 337.219 626.528 337.327 627.131C337.487 628.036 338.103 628.571 338.981 628.595C339.862 628.619 340.484 628.131 340.706 627.222C340.77 626.963 340.793 626.695 340.843 626.377L340.841 626.375Z" fill="white"/>
<path d="M330.044 626.403C330.005 624.098 331.921 623.034 333.73 623.5C335.14 623.862 335.974 625.227 335.773 626.853C335.579 628.415 334.61 629.398 333.19 629.468C331.226 629.566 330.034 628.405 330.044 626.405V626.403ZM334.687 626.372C334.656 626.147 334.646 625.852 334.571 625.574C334.34 624.73 333.764 624.304 332.906 624.306C332.044 624.307 331.496 624.732 331.253 625.587C331.097 626.139 331.092 626.692 331.239 627.247C331.482 628.156 332.099 628.63 332.985 628.594C333.879 628.558 334.496 627.98 334.632 627.041C334.661 626.841 334.665 626.639 334.685 626.371L334.687 626.372Z" fill="white"/>
<path d="M351.275 625.399C351.275 624.465 351.308 623.53 351.265 622.597C351.222 621.663 351.597 621.264 352.505 621.321C353.122 621.36 353.744 621.326 354.363 621.329C356.264 621.334 357.455 622.29 357.824 624.161C358.011 625.105 358.002 626.068 357.747 627.006C357.315 628.598 356.187 629.461 354.544 629.473C353.77 629.478 352.995 629.481 352.221 629.471C351.571 629.462 351.289 629.193 351.279 628.538C351.264 627.493 351.274 626.447 351.274 625.401L351.275 625.399ZM352.551 628.34C353.371 628.34 354.166 628.411 354.942 628.32C355.638 628.239 356.141 627.755 356.399 627.093C356.835 625.975 356.829 624.836 356.395 623.717C356.168 623.131 355.73 622.714 355.123 622.54C354.286 622.3 353.431 622.408 352.552 622.41V628.34H352.551Z" fill="white"/>
<path d="M374.678 626.847C374.704 627.685 375.075 628.281 375.697 628.506C376.405 628.764 377.16 628.554 377.668 627.96C378.03 627.536 378.276 627.448 378.54 627.651C378.811 627.86 378.767 628.228 378.413 628.64C378.341 628.724 378.261 628.803 378.174 628.87C377.268 629.568 376.249 629.64 375.216 629.297C374.174 628.95 373.618 628.132 373.459 627.067C373.394 626.634 373.389 626.166 373.481 625.742C374.046 623.172 376.705 623.017 378.061 624.041C378.687 624.514 378.974 625.173 378.998 625.946C379.017 626.565 378.794 626.79 378.172 626.795C377.133 626.804 376.092 626.795 375.052 626.8C374.926 626.8 374.801 626.83 374.678 626.845V626.847ZM377.883 625.916C377.864 624.926 377.283 624.378 376.28 624.364C375.299 624.35 374.719 624.902 374.685 625.916H377.881H377.883Z" fill="white"/>
<path d="M359.649 626.801C359.772 628.198 360.647 628.863 361.827 628.526C362.088 628.452 362.321 628.253 362.546 628.084C362.666 627.995 362.741 627.844 362.844 627.729C363.035 627.514 363.271 627.49 363.5 627.638C363.743 627.794 363.768 628.024 363.639 628.279C363.285 628.978 362.659 629.294 361.943 629.43C360.63 629.679 359.479 629.211 358.862 628.224C358.214 627.188 358.249 625.612 358.941 624.618C359.592 623.681 360.709 623.283 361.939 623.551C363.052 623.793 363.772 624.513 363.956 625.585C363.987 625.758 363.999 625.94 363.986 626.116C363.95 626.585 363.743 626.791 363.266 626.798C362.315 626.811 361.363 626.803 360.411 626.803C360.17 626.803 359.929 626.803 359.649 626.803V626.801ZM359.659 625.956C360.23 625.956 360.756 625.964 361.283 625.954C361.82 625.944 362.363 626.002 362.898 625.913C362.794 624.858 362.244 624.367 361.235 624.367C360.293 624.367 359.76 624.874 359.661 625.958L359.659 625.956Z" fill="white"/>
<path d="M385.622 628.06C385.745 627.772 385.837 627.578 385.911 627.377C386.304 626.315 386.69 625.25 387.083 624.188C387.145 624.023 387.203 623.846 387.307 623.709C387.465 623.497 387.687 623.403 387.952 623.52C388.206 623.633 388.323 623.838 388.283 624.109C388.263 624.26 388.201 624.408 388.145 624.552C387.401 626.48 386.656 628.406 385.911 630.332C385.863 630.455 385.813 630.579 385.755 630.699C385.371 631.498 384.516 631.871 383.69 631.572C383.557 631.524 383.396 631.325 383.396 631.194C383.394 631.027 383.528 630.849 383.632 630.698C383.668 630.646 383.8 630.634 383.882 630.646C384.62 630.742 384.895 630.294 385.082 629.68C385.171 629.387 385.082 629.162 384.969 628.919C384.314 627.509 383.659 626.098 383.006 624.688C382.931 624.526 382.849 624.367 382.798 624.198C382.709 623.901 382.825 623.664 383.088 623.53C383.37 623.386 383.61 623.504 383.777 623.745C383.876 623.889 383.94 624.061 384.006 624.224C384.441 625.27 384.871 626.318 385.306 627.365C385.389 627.566 385.485 627.761 385.622 628.064V628.06Z" fill="white"/>
<path d="M370.786 627.985C371.092 627.061 371.399 626.139 371.705 625.214C371.846 624.793 371.97 624.366 372.121 623.948C372.259 623.567 372.519 623.409 372.815 623.489C373.153 623.582 373.302 623.866 373.162 624.295C372.871 625.182 372.546 626.056 372.234 626.934C372.018 627.541 371.798 628.147 371.582 628.753C371.439 629.157 371.222 629.466 370.738 629.468C370.304 629.468 370.057 629.301 369.871 628.786C369.343 627.324 368.83 625.857 368.312 624.391C368.283 624.309 368.259 624.221 368.249 624.134C368.213 623.835 368.314 623.593 368.608 623.498C368.9 623.404 369.131 623.532 369.264 623.806C369.341 623.964 369.389 624.137 369.444 624.307C369.847 625.529 370.251 626.75 370.654 627.972C370.699 627.977 370.743 627.982 370.787 627.985H370.786Z" fill="white"/>
<path d="M380.74 624.031C381.005 623.866 381.232 623.689 381.488 623.578C381.659 623.502 381.9 623.442 382.056 623.507C382.227 623.58 382.401 623.784 382.453 623.966C382.528 624.229 382.353 624.425 382.088 624.514C382.068 624.521 382.044 624.521 382.023 624.528C380.974 624.827 380.699 625.165 380.68 626.248C380.664 627.046 380.683 627.847 380.673 628.646C380.666 629.245 380.512 629.464 380.133 629.469C379.748 629.472 379.574 629.237 379.572 628.667C379.567 627.201 379.57 625.736 379.572 624.27C379.572 624.16 379.541 624.021 379.596 623.944C379.716 623.774 379.856 623.562 380.032 623.506C380.172 623.461 380.393 623.595 380.546 623.696C380.641 623.758 380.676 623.911 380.743 624.035L380.74 624.031Z" fill="white"/>
<path d="M364.647 625.446C364.647 624.403 364.647 623.359 364.647 622.316C364.647 622.162 364.644 622.005 364.655 621.851C364.678 621.536 364.866 621.37 365.165 621.339C365.461 621.309 365.681 621.524 365.726 621.868C365.739 621.978 365.732 622.089 365.732 622.201C365.732 624.333 365.732 626.463 365.732 628.594C365.732 628.748 365.741 628.908 365.707 629.058C365.645 629.326 365.462 629.468 365.18 629.465C364.898 629.46 364.719 629.317 364.669 629.042C364.642 628.891 364.65 628.733 364.65 628.577C364.65 627.534 364.65 626.489 364.65 625.446H364.647Z" fill="white"/>
<path d="M367.657 626.471C367.657 627.182 367.66 627.893 367.653 628.605C367.653 628.78 367.669 628.988 367.585 629.124C367.496 629.271 367.305 629.429 367.147 629.441C366.987 629.455 366.797 629.318 366.65 629.206C366.58 629.153 366.556 629.005 366.554 628.899C366.549 627.297 366.542 625.698 366.554 624.097C366.558 623.714 366.809 623.48 367.12 623.489C367.429 623.497 367.635 623.717 367.645 624.134C367.664 624.913 367.65 625.691 367.65 626.468H367.653L367.657 626.471Z" fill="white"/>
<path d="M367.719 621.909C367.729 622.236 367.488 622.499 367.156 622.523C366.784 622.548 366.512 622.306 366.503 621.94C366.495 621.609 366.732 621.344 367.06 621.318C367.406 621.291 367.708 621.562 367.72 621.911L367.719 621.909Z" fill="white"/>
<path d="M224.827 616L227.724 598.545H230.273L229.207 605.031H229.361C229.554 604.759 229.818 604.443 230.153 604.085C230.494 603.727 230.935 603.415 231.474 603.148C232.014 602.875 232.69 602.739 233.503 602.739C234.56 602.739 235.457 603.006 236.196 603.54C236.935 604.074 237.457 604.844 237.764 605.849C238.071 606.855 238.108 608.065 237.875 609.48C237.642 610.895 237.205 612.108 236.562 613.119C235.926 614.125 235.151 614.901 234.236 615.446C233.321 615.986 232.335 616.256 231.278 616.256C230.483 616.256 229.855 616.122 229.395 615.855C228.94 615.588 228.599 615.276 228.372 614.918C228.151 614.56 227.983 614.241 227.869 613.963H227.656L227.315 616H224.827ZM228.415 609.455C228.267 610.375 228.267 611.182 228.415 611.875C228.568 612.568 228.866 613.111 229.31 613.503C229.759 613.889 230.347 614.082 231.074 614.082C231.835 614.082 232.506 613.881 233.085 613.477C233.665 613.068 234.142 612.514 234.517 611.815C234.892 611.116 235.153 610.33 235.301 609.455C235.438 608.591 235.435 607.815 235.293 607.128C235.151 606.44 234.855 605.898 234.406 605.5C233.963 605.102 233.358 604.903 232.591 604.903C231.852 604.903 231.196 605.094 230.622 605.474C230.048 605.855 229.574 606.386 229.199 607.068C228.824 607.75 228.563 608.545 228.415 609.455ZM240.01 620.909C239.624 620.909 239.28 620.878 238.979 620.815C238.678 620.759 238.453 620.696 238.305 620.628L239.277 618.54C239.726 618.665 240.126 618.713 240.479 618.685C240.837 618.656 241.172 618.509 241.484 618.241C241.797 617.974 242.115 617.554 242.439 616.98L242.916 616.119L240.351 602.909H242.976L244.595 613.094H244.732L249.743 602.909H252.581L244.732 617.73C244.362 618.435 243.942 619.02 243.47 619.486C243.004 619.957 242.482 620.313 241.902 620.551C241.328 620.79 240.697 620.909 240.01 620.909Z" fill="white"/>
</svg>
