<svg width="31" height="31" viewBox="0 0 31 31" fill="none" xmlns="http://www.w3.org/2000/svg">
<g clip-path="url(#clip0_34328_5123)">
<rect width="31" height="31" rx="7.5" fill="#2A4BA0"/>
<g clip-path="url(#clip1_34328_5123)">
<path d="M31 0H0V31H31V0Z" fill="#2A4BA0"/>
<path d="M24.1341 22.6455H6.91113V23.8872H24.1341V22.6455Z" fill="#182651"/>
<path d="M23.2615 12.0273H7.94043V22.6463H23.2615V12.0273Z" fill="#B0E3FF"/>
<path d="M25.5112 11.9074L22.7599 8.32812H20.6729L22.6109 11.9074C22.6109 11.9074 22.6046 12.2876 22.6046 12.4974C22.6046 13.3119 23.2649 13.9722 24.0794 13.9722C24.894 13.9722 25.5542 13.3119 25.5542 12.4974C25.5542 12.2876 25.5112 11.9074 25.5112 11.9074Z" fill="#182A53"/>
<path d="M16.8885 11.9114L16.9089 8.32324H14.1812V11.9114C14.1812 11.9114 14.0771 12.2912 14.0771 12.5014C14.0771 13.3113 14.7344 13.9679 15.545 13.9679C16.3556 13.9679 17.0129 13.3113 17.0129 12.5014C17.0129 12.2912 16.9679 12.092 16.8885 11.9114Z" fill="#428CC9"/>
<path d="M5.54301 11.9074L8.29428 8.32812H10.3814L8.44333 11.9074C8.44333 11.9074 8.44957 12.2876 8.44957 12.4974C8.44957 13.3119 7.78933 13.9722 6.97478 13.9722C6.16024 13.9722 5.5 13.3119 5.5 12.4974C5.5 12.2876 5.54301 11.9074 5.54301 11.9074Z" fill="#182651"/>
<path d="M22.7591 7.11328H8.29004V8.32837H22.7591V7.11328Z" fill="#182651"/>
<path d="M15.4957 15.1595C14.558 15.1595 13.7507 15.8299 13.3846 16.7942C13.2516 17.1445 13.1764 17.5329 13.1748 17.9426V17.9558V22.6457H17.8168V17.9561V17.9423C17.8152 17.5326 17.74 17.1438 17.607 16.7939C17.241 15.8296 16.4336 15.1592 15.496 15.1592L15.4957 15.1595Z" fill="white"/>
<path d="M8.44245 11.9025L8.45854 11.8697C8.4812 11.8211 8.50647 11.7741 8.53405 11.7285L10.3539 8.32324H12.481L11.3037 11.9025C11.3037 11.9025 11.347 12.283 11.347 12.4925C11.347 13.3179 10.6694 13.987 9.83319 13.987C8.99698 13.987 8.31934 13.3179 8.31934 12.4925C8.31934 12.283 8.36333 12.0834 8.44245 11.9025Z" fill="#428CC9"/>
<path d="M11.311 11.8743L12.4778 8.32784L14.1818 8.32324V12.4771C14.1818 13.3051 13.5107 13.9761 12.6827 13.9761C11.8547 13.9761 11.1836 13.3051 11.1836 12.4771C11.1836 12.2623 11.2296 12.0588 11.3107 11.8743H11.311Z" fill="#182651"/>
<path d="M22.6032 11.9142L22.5875 11.8814C22.5652 11.8328 22.5402 11.7859 22.513 11.7402L20.7161 8.33496H18.6162L19.7784 11.9142C19.7784 11.9142 19.7358 12.2947 19.7358 12.5042C19.7358 13.3296 20.4049 13.9987 21.2302 13.9987C22.0556 13.9987 22.7247 13.3296 22.7247 12.5042C22.7247 12.2947 22.6811 12.0951 22.6032 11.9142Z" fill="#428CC9"/>
<path d="M19.7751 11.8704L18.6161 8.3282L16.9043 8.31934V12.4732C16.9043 13.3012 17.5754 13.9722 18.4034 13.9722C19.2314 13.9722 19.9025 13.3012 19.9025 12.4732C19.9025 12.2584 19.8565 12.0549 19.7754 11.8704H19.7751Z" fill="#182651"/>
<path d="M24.2482 16.8674H22.4031L21.0938 14.8788V14.6906C21.0938 14.5715 20.9973 14.4746 20.8778 14.4746H20.7166C20.5974 14.4746 20.5005 14.5711 20.5005 14.6906V14.8709L19.1571 16.867H17.0936C16.8063 16.867 16.5732 17.1001 16.5732 17.3874V17.4885C16.5732 17.7758 16.8063 18.0089 17.0936 18.0089H17.2364L17.8704 20.945C17.8704 20.945 17.9558 21.5041 18.6006 21.5274C19.2454 21.5507 23.0981 21.5274 23.0981 21.5274C23.0981 21.5274 23.6651 21.5507 23.7896 20.704C23.8907 20.0159 24.1661 18.5368 24.2656 18.0079C24.5447 17.9984 24.7683 17.7699 24.7683 17.4885V17.3874C24.7683 17.1001 24.5352 16.867 24.2479 16.867L24.2482 16.8674ZM18.9053 20.7017C18.7565 20.7116 18.6282 20.5986 18.6183 20.4499L18.487 18.4446C18.4771 18.2962 18.5911 18.1747 18.7398 18.1747C18.8885 18.1747 19.0182 18.2962 19.028 18.4446L19.1571 20.4145C19.1669 20.5632 19.054 20.6916 18.9053 20.7014V20.7017ZM20.69 15.1516L20.9306 15.1506L21.9041 16.8674H19.6312L20.69 15.1516ZM20.3567 20.4345C20.3567 20.6019 20.2044 20.7336 20.031 20.6988C19.9037 20.6732 19.817 20.554 19.817 20.4243V18.4521C19.817 18.3224 19.904 18.2029 20.031 18.1777C20.2044 18.1429 20.3567 18.2748 20.3567 18.4419V20.4345ZM21.5695 20.4345C21.5695 20.5835 21.4487 20.7044 21.2996 20.7044C21.1506 20.7044 21.0298 20.5835 21.0298 20.4345V18.4419C21.0298 18.2929 21.1506 18.1721 21.2996 18.1721C21.4487 18.1721 21.5695 18.2929 21.5695 18.4419V20.4345ZM22.8417 20.4319C22.8319 20.5803 22.7022 20.7017 22.5535 20.7017C22.4047 20.7017 22.2908 20.5803 22.3007 20.4319L22.4313 18.4367C22.4399 18.3073 22.5344 18.1937 22.6628 18.1767C22.8381 18.1534 22.9816 18.2949 22.9704 18.4616L22.8414 20.4315L22.8417 20.4319Z" fill="#428CC9"/>
</g>
</g>
<defs>
<clipPath id="clip0_34328_5123">
<rect width="31" height="31" rx="7.5" fill="white"/>
</clipPath>
<clipPath id="clip1_34328_5123">
<rect width="31" height="31" fill="white"/>
</clipPath>
</defs>
</svg>
